<svg xmlns="http://www.w3.org/2000/svg" xmlns:xlink="http://www.w3.org/1999/xlink" contentStyleType="text/css" height="570px" preserveAspectRatio="none" style="width:707px;height:570px;background:#FFFFFF;" version="1.1" viewBox="0 0 707 570" width="707px" zoomAndPan="magnify"><defs/><g><rect fill="#FFFFFF" height="248.6481" style="stroke:#181818;stroke-width:1.0;" width="10" x="611.1494" y="181.186"/><rect fill="none" height="146.5301" style="stroke:#000000;stroke-width:1.5;" width="528.1549" x="173.8043" y="291.304"/><line style="stroke:#181818;stroke-width:0.5;stroke-dasharray:5.0,5.0;" x1="23" x2="23" y1="84.0679" y2="486.5401"/><line style="stroke:#181818;stroke-width:0.5;stroke-dasharray:5.0,5.0;" x1="240.8043" x2="240.8043" y1="84.0679" y2="486.5401"/><line style="stroke:#181818;stroke-width:0.5;stroke-dasharray:5.0,5.0;" x1="425.4344" x2="425.4344" y1="84.0679" y2="486.5401"/><line style="stroke:#181818;stroke-width:0.5;stroke-dasharray:5.0,5.0;" x1="615.3397" x2="615.3397" y1="84.0679" y2="486.5401"/><text fill="#000000" font-family="sans-serif" font-size="14" lengthAdjust="spacing" textLength="30.6179" x="5" y="79.9659">User</text><ellipse cx="23.3089" cy="13.5" fill="#E2E2F0" rx="8" ry="8" style="stroke:#181818;stroke-width:0.5;"/><path d="M23.3089,21.5 L23.3089,48.5 M10.3089,29.5 L36.3089,29.5 M23.3089,48.5 L10.3089,63.5 M23.3089,48.5 L36.3089,63.5 " fill="none" style="stroke:#181818;stroke-width:0.5;"/><text fill="#000000" font-family="sans-serif" font-size="14" lengthAdjust="spacing" textLength="30.6179" x="5" y="500.5061">User</text><ellipse cx="23.3089" cy="513.108" fill="#E2E2F0" rx="8" ry="8" style="stroke:#181818;stroke-width:0.5;"/><path d="M23.3089,521.108 L23.3089,548.108 M10.3089,529.108 L36.3089,529.108 M23.3089,548.108 L10.3089,563.108 M23.3089,548.108 L36.3089,563.108 " fill="none" style="stroke:#181818;stroke-width:0.5;"/><rect fill="#E2E2F0" height="33.0679" rx="2.5" ry="2.5" style="stroke:#181818;stroke-width:0.5;" width="114.2536" x="183.8043" y="50"/><text fill="#000000" font-family="sans-serif" font-size="14" lengthAdjust="spacing" textLength="100.2536" x="190.8043" y="71.9659">React Frontend</text><rect fill="#E2E2F0" height="33.0679" rx="2.5" ry="2.5" style="stroke:#181818;stroke-width:0.5;" width="114.2536" x="183.8043" y="485.5401"/><text fill="#000000" font-family="sans-serif" font-size="14" lengthAdjust="spacing" textLength="100.2536" x="190.8043" y="507.5061">React Frontend</text><rect fill="#E2E2F0" height="33.0679" rx="2.5" ry="2.5" style="stroke:#181818;stroke-width:0.5;" width="107.2116" x="372.4344" y="50"/><text fill="#000000" font-family="sans-serif" font-size="14" lengthAdjust="spacing" textLength="93.2116" x="379.4344" y="71.9659">Django Server</text><rect fill="#E2E2F0" height="33.0679" rx="2.5" ry="2.5" style="stroke:#181818;stroke-width:0.5;" width="107.2116" x="372.4344" y="485.5401"/><text fill="#000000" font-family="sans-serif" font-size="14" lengthAdjust="spacing" textLength="93.2116" x="379.4344" y="507.5061">Django Server</text><rect fill="#E2E2F0" height="33.0679" rx="2.5" ry="2.5" style="stroke:#181818;stroke-width:0.5;" width="151.6195" x="540.3397" y="50"/><text fill="#000000" font-family="sans-serif" font-size="14" lengthAdjust="spacing" textLength="137.6195" x="547.3397" y="71.9659">Celery Task Manager</text><rect fill="#E2E2F0" height="33.0679" rx="2.5" ry="2.5" style="stroke:#181818;stroke-width:0.5;" width="151.6195" x="540.3397" y="485.5401"/><text fill="#000000" font-family="sans-serif" font-size="14" lengthAdjust="spacing" textLength="137.6195" x="547.3397" y="507.5061">Celery Task Manager</text><rect fill="#FFFFFF" height="248.6481" style="stroke:#181818;stroke-width:1.0;" width="10" x="611.1494" y="181.186"/><polygon fill="#181818" points="228.9311,113.7739,238.9311,117.7739,228.9311,121.7739,232.9311,117.7739" style="stroke:#181818;stroke-width:1.0;"/><line style="stroke:#181818;stroke-width:1.0;" x1="23.3089" x2="234.9311" y1="117.7739" y2="117.7739"/><text fill="#000000" font-family="sans-serif" font-size="13" lengthAdjust="spacing" textLength="193.6222" x="30.3089" y="111.9649">Upload files and click transcribe</text><polygon fill="#181818" points="414.0403,145.4799,424.0403,149.4799,414.0403,153.4799,418.0403,149.4799" style="stroke:#181818;stroke-width:1.0;"/><line style="stroke:#181818;stroke-width:1.0;" x1="240.9311" x2="420.0403" y1="149.4799" y2="149.4799"/><text fill="#000000" font-family="sans-serif" font-size="13" lengthAdjust="spacing" textLength="111.0851" x="247.9311" y="143.6709">Start transcription</text><polygon fill="#181818" points="599.1494,177.186,609.1494,181.186,599.1494,185.186,603.1494,181.186" style="stroke:#181818;stroke-width:1.0;"/><line style="stroke:#181818;stroke-width:1.0;" x1="426.0403" x2="605.1494" y1="181.186" y2="181.186"/><text fill="#000000" font-family="sans-serif" font-size="13" lengthAdjust="spacing" textLength="150.6701" x="433.0403" y="175.377">Create transcription task</text><polygon fill="#181818" points="437.0403,208.892,427.0403,212.892,437.0403,216.892,433.0403,212.892" style="stroke:#181818;stroke-width:1.0;"/><line style="stroke:#181818;stroke-width:1.0;" x1="431.0403" x2="610.1494" y1="212.892" y2="212.892"/><text fill="#000000" font-family="sans-serif" font-size="13" lengthAdjust="spacing" textLength="124.3191" x="443.0403" y="207.083">Transcription task id</text><polygon fill="#181818" points="251.9311,240.598,241.9311,244.598,251.9311,248.598,247.9311,244.598" style="stroke:#181818;stroke-width:1.0;"/><line style="stroke:#181818;stroke-width:1.0;" x1="245.9311" x2="425.0403" y1="244.598" y2="244.598"/><text fill="#000000" font-family="sans-serif" font-size="13" lengthAdjust="spacing" textLength="124.3191" x="257.9311" y="238.789">Transcription task id</text><polygon fill="#181818" points="34.3089,272.304,24.3089,276.304,34.3089,280.304,30.3089,276.304" style="stroke:#181818;stroke-width:1.0;"/><line style="stroke:#181818;stroke-width:1.0;" x1="28.3089" x2="239.9311" y1="276.304" y2="276.304"/><text fill="#000000" font-family="sans-serif" font-size="13" lengthAdjust="spacing" textLength="123.2531" x="40.3089" y="270.495">Upload size and ETA</text><path d="M173.8043,291.304 L247.0923,291.304 L247.0923,301.01 L237.0923,311.01 L173.8043,311.01 L173.8043,291.304 " fill="#EEEEEE" style="stroke:#000000;stroke-width:1.5;"/><rect fill="none" height="146.5301" style="stroke:#000000;stroke-width:1.5;" width="528.1549" x="173.8043" y="291.304"/><text fill="#000000" font-family="sans-serif" font-size="13" font-weight="bold" lengthAdjust="spacing" textLength="28.288" x="188.8043" y="306.201">loop</text><text fill="#000000" font-family="sans-serif" font-size="11" font-weight="bold" lengthAdjust="spacing" textLength="101.3863" x="262.0923" y="305.0629">[Polling for status]</text><polygon fill="#181818" points="414.0403,330.716,424.0403,334.716,414.0403,338.716,418.0403,334.716" style="stroke:#181818;stroke-width:1.0;"/><line style="stroke:#181818;stroke-width:1.0;" x1="240.9311" x2="420.0403" y1="334.716" y2="334.716"/><text fill="#000000" font-family="sans-serif" font-size="13" lengthAdjust="spacing" textLength="144.8851" x="247.9311" y="328.907">Poll transcription status</text><polygon fill="#181818" points="599.1494,362.4221,609.1494,366.4221,599.1494,370.4221,603.1494,366.4221" style="stroke:#181818;stroke-width:1.0;"/><line style="stroke:#181818;stroke-width:1.0;" x1="426.0403" x2="605.1494" y1="366.4221" y2="366.4221"/><text fill="#000000" font-family="sans-serif" font-size="13" lengthAdjust="spacing" textLength="144.8851" x="433.0403" y="360.6131">Poll transcription status</text><polygon fill="#181818" points="437.0403,394.1281,427.0403,398.1281,437.0403,402.1281,433.0403,398.1281" style="stroke:#181818;stroke-width:1.0;"/><line style="stroke:#181818;stroke-width:1.0;" x1="431.0403" x2="610.1494" y1="398.1281" y2="398.1281"/><text fill="#000000" font-family="sans-serif" font-size="13" lengthAdjust="spacing" textLength="161.1092" x="443.0403" y="392.3191">Transcription status / links</text><polygon fill="#181818" points="251.9311,425.8341,241.9311,429.8341,251.9311,433.8341,247.9311,429.8341" style="stroke:#181818;stroke-width:1.0;"/><line style="stroke:#181818;stroke-width:1.0;" x1="245.9311" x2="425.0403" y1="429.8341" y2="429.8341"/><text fill="#000000" font-family="sans-serif" font-size="13" lengthAdjust="spacing" textLength="161.1092" x="257.9311" y="424.0251">Transcription status / links</text><polygon fill="#181818" points="34.3089,464.5401,24.3089,468.5401,34.3089,472.5401,30.3089,468.5401" style="stroke:#181818;stroke-width:1.0;"/><line style="stroke:#181818;stroke-width:1.0;" x1="28.3089" x2="239.9311" y1="468.5401" y2="468.5401"/><text fill="#000000" font-family="sans-serif" font-size="13" lengthAdjust="spacing" textLength="93.4051" x="40.3089" y="462.7311">Download links</text><!--SRC=[VP71JiCm44Jl_efHxuXx3qXLGcv8A4a_O76saObbH_PI15-FdPIGq8AlytPsParQVC0nSb0Z1J7QZEG4kvf92whWdR3hTg28kjeYvIkvtgFXSEOm4MMp9Ggs73xGKXpmH8xw2rSebJVYxY6Pxd4ShQSE9sCvWbm7ROqU885SrC6yiAghp9RD7esa1OiqYl5EbKrMYpsAm2IyLI5fkqfbp3bhXIg-hTeh3AQxcELOj_KvIew_18_cawVSZ-r1AUlzY6TlhN4zJkcuKKZUea9wFpqoy2leYbiQ_O_zKMKcS8yKOLWRNhUwWNQyEbRwUxMfNFftDvMU1xu0]--></g></svg>